<mxfile host="Electron" modified="2024-07-18T04:40:57.130Z" agent="Mozilla/5.0 (X11; Linux x86_64) AppleWebKit/537.36 (KHTML, like Gecko) draw.io/24.5.3 Chrome/124.0.6367.207 Electron/30.0.6 Safari/537.36" etag="nnpUiadifrSYpuOB5pxd" version="24.5.3" type="device">
  <diagram name="Page-1" id="4h5rcGQ37CvVrqgL6BRg">
    <mxGraphModel dx="1990" dy="698" grid="1" gridSize="10" guides="1" tooltips="1" connect="1" arrows="1" fold="1" page="1" pageScale="1" pageWidth="850" pageHeight="1100" math="0" shadow="0">
      <root>
        <mxCell id="0" />
        <mxCell id="1" parent="0" />
        <mxCell id="G27XcJ3L38covOuvppiz-40" style="edgeStyle=orthogonalEdgeStyle;rounded=0;orthogonalLoop=1;jettySize=auto;html=1;entryX=1.007;entryY=0.512;entryDx=0;entryDy=0;entryPerimeter=0;" parent="1" source="G27XcJ3L38covOuvppiz-9" target="G27XcJ3L38covOuvppiz-15" edge="1">
          <mxGeometry relative="1" as="geometry">
            <mxPoint x="270" y="65" as="targetPoint" />
          </mxGeometry>
        </mxCell>
        <mxCell id="G27XcJ3L38covOuvppiz-9" value="&lt;b&gt;Raw Data&lt;/b&gt;&lt;div&gt;(Raw directory)&lt;/div&gt;" style="html=1;whiteSpace=wrap;" parent="1" vertex="1">
          <mxGeometry x="320" y="30" width="160" height="70" as="geometry" />
        </mxCell>
        <mxCell id="G27XcJ3L38covOuvppiz-43" style="edgeStyle=orthogonalEdgeStyle;rounded=0;orthogonalLoop=1;jettySize=auto;html=1;entryX=0.5;entryY=0;entryDx=0;entryDy=0;" parent="1" source="G27XcJ3L38covOuvppiz-15" target="G27XcJ3L38covOuvppiz-38" edge="1">
          <mxGeometry relative="1" as="geometry" />
        </mxCell>
        <mxCell id="G27XcJ3L38covOuvppiz-15" value="&lt;b&gt;DataExtraction Scripts&lt;/b&gt;&lt;div&gt;FeatureExtraction.py&lt;/div&gt;&lt;div&gt;LabelExtraction.py&lt;/div&gt;" style="text;html=1;align=center;verticalAlign=middle;resizable=0;points=[];autosize=1;strokeColor=none;fillColor=none;" parent="1" vertex="1">
          <mxGeometry x="100" y="35" width="150" height="60" as="geometry" />
        </mxCell>
        <mxCell id="G27XcJ3L38covOuvppiz-44" style="edgeStyle=orthogonalEdgeStyle;rounded=0;orthogonalLoop=1;jettySize=auto;html=1;" parent="1" source="G27XcJ3L38covOuvppiz-24" target="G27XcJ3L38covOuvppiz-45" edge="1">
          <mxGeometry relative="1" as="geometry">
            <mxPoint x="360" y="170" as="targetPoint" />
          </mxGeometry>
        </mxCell>
        <mxCell id="G27XcJ3L38covOuvppiz-24" value="&lt;b&gt;Merging Features and Labels&lt;/b&gt;&lt;div&gt;MergingData.py&lt;/div&gt;" style="text;html=1;align=center;verticalAlign=middle;resizable=0;points=[];autosize=1;strokeColor=none;fillColor=none;" parent="1" vertex="1">
          <mxGeometry x="140" y="170" width="190" height="40" as="geometry" />
        </mxCell>
        <mxCell id="G27XcJ3L38covOuvppiz-33" style="edgeStyle=orthogonalEdgeStyle;rounded=0;orthogonalLoop=1;jettySize=auto;html=1;entryX=1;entryY=0.5;entryDx=0;entryDy=0;" parent="1" source="G27XcJ3L38covOuvppiz-31" target="G27XcJ3L38covOuvppiz-9" edge="1">
          <mxGeometry relative="1" as="geometry" />
        </mxCell>
        <mxCell id="G27XcJ3L38covOuvppiz-31" value="GSR_data directory&lt;div&gt;&lt;span style=&quot;background-color: initial;&quot;&gt;participant_response.xlsx&lt;/span&gt;&lt;/div&gt;" style="text;html=1;align=center;verticalAlign=middle;resizable=0;points=[];autosize=1;strokeColor=none;fillColor=none;" parent="1" vertex="1">
          <mxGeometry x="550" y="45" width="160" height="40" as="geometry" />
        </mxCell>
        <mxCell id="G27XcJ3L38covOuvppiz-39" style="edgeStyle=orthogonalEdgeStyle;rounded=0;orthogonalLoop=1;jettySize=auto;html=1;" parent="1" source="G27XcJ3L38covOuvppiz-38" target="G27XcJ3L38covOuvppiz-24" edge="1">
          <mxGeometry relative="1" as="geometry" />
        </mxCell>
        <mxCell id="G27XcJ3L38covOuvppiz-38" value="&lt;div&gt;&lt;b&gt;Raw features and labels&lt;/b&gt;&lt;/div&gt;features.csv&lt;div&gt;labels.csv&lt;/div&gt;" style="whiteSpace=wrap;html=1;" parent="1" vertex="1">
          <mxGeometry x="-70" y="150" width="150" height="80" as="geometry" />
        </mxCell>
        <mxCell id="G27XcJ3L38covOuvppiz-46" style="edgeStyle=orthogonalEdgeStyle;rounded=0;orthogonalLoop=1;jettySize=auto;html=1;" parent="1" source="G27XcJ3L38covOuvppiz-45" target="G27XcJ3L38covOuvppiz-47" edge="1">
          <mxGeometry relative="1" as="geometry">
            <mxPoint x="530" y="170" as="targetPoint" />
          </mxGeometry>
        </mxCell>
        <mxCell id="G27XcJ3L38covOuvppiz-45" value="&lt;b&gt;Merged Data&lt;/b&gt;&lt;div&gt;(merged.csv)&lt;/div&gt;" style="html=1;whiteSpace=wrap;" parent="1" vertex="1">
          <mxGeometry x="390" y="150" width="110" height="80" as="geometry" />
        </mxCell>
        <mxCell id="G27XcJ3L38covOuvppiz-50" style="edgeStyle=orthogonalEdgeStyle;rounded=0;orthogonalLoop=1;jettySize=auto;html=1;entryX=0.5;entryY=0;entryDx=0;entryDy=0;" parent="1" source="G27XcJ3L38covOuvppiz-47" target="G27XcJ3L38covOuvppiz-49" edge="1">
          <mxGeometry relative="1" as="geometry" />
        </mxCell>
        <mxCell id="G27XcJ3L38covOuvppiz-47" value="&lt;b&gt;Feature Removal I&lt;/b&gt;&lt;br&gt;&lt;div&gt;FRbyMissing.py&lt;/div&gt;" style="text;html=1;align=center;verticalAlign=middle;resizable=0;points=[];autosize=1;strokeColor=none;fillColor=none;" parent="1" vertex="1">
          <mxGeometry x="575" y="170" width="130" height="40" as="geometry" />
        </mxCell>
        <mxCell id="G27XcJ3L38covOuvppiz-51" style="edgeStyle=orthogonalEdgeStyle;rounded=0;orthogonalLoop=1;jettySize=auto;html=1;" parent="1" source="G27XcJ3L38covOuvppiz-49" edge="1" target="G27XcJ3L38covOuvppiz-54">
          <mxGeometry relative="1" as="geometry">
            <mxPoint x="640.0000000000002" y="280" as="targetPoint" />
          </mxGeometry>
        </mxCell>
        <mxCell id="G27XcJ3L38covOuvppiz-49" value="&lt;div&gt;&lt;div&gt;&lt;div&gt;&lt;b&gt;Removed I&lt;/b&gt;&lt;/div&gt;&lt;div&gt;(removed_1.csv)&lt;/div&gt;&lt;/div&gt;&lt;/div&gt;" style="whiteSpace=wrap;html=1;" parent="1" vertex="1">
          <mxGeometry x="720" y="290" width="160" height="70" as="geometry" />
        </mxCell>
        <mxCell id="G27XcJ3L38covOuvppiz-55" style="edgeStyle=orthogonalEdgeStyle;rounded=0;orthogonalLoop=1;jettySize=auto;html=1;entryX=1;entryY=0.5;entryDx=0;entryDy=0;" parent="1" source="G27XcJ3L38covOuvppiz-54" target="G27XcJ3L38covOuvppiz-56" edge="1">
          <mxGeometry relative="1" as="geometry">
            <mxPoint x="500" y="283" as="targetPoint" />
          </mxGeometry>
        </mxCell>
        <mxCell id="G27XcJ3L38covOuvppiz-54" value="&lt;b&gt;Feature Removeal II&lt;/b&gt;&lt;div&gt;using correlation&lt;/div&gt;&lt;div&gt;FRbyCorr.py&lt;/div&gt;" style="text;html=1;align=center;verticalAlign=middle;resizable=0;points=[];autosize=1;strokeColor=none;fillColor=none;" parent="1" vertex="1">
          <mxGeometry x="515" y="295" width="140" height="60" as="geometry" />
        </mxCell>
        <mxCell id="G27XcJ3L38covOuvppiz-57" style="edgeStyle=orthogonalEdgeStyle;rounded=0;orthogonalLoop=1;jettySize=auto;html=1;" parent="1" source="G27XcJ3L38covOuvppiz-56" target="G27XcJ3L38covOuvppiz-58" edge="1">
          <mxGeometry relative="1" as="geometry">
            <mxPoint x="290" y="283" as="targetPoint" />
          </mxGeometry>
        </mxCell>
        <mxCell id="G27XcJ3L38covOuvppiz-56" value="&lt;b&gt;Data with Reduced features&lt;/b&gt;&lt;div&gt;(reduced.csv)&lt;/div&gt;" style="whiteSpace=wrap;html=1;" parent="1" vertex="1">
          <mxGeometry x="320" y="280" width="120" height="90" as="geometry" />
        </mxCell>
        <mxCell id="NhDxNRqXEH33gflB0Hib-1" style="edgeStyle=orthogonalEdgeStyle;rounded=0;orthogonalLoop=1;jettySize=auto;html=1;entryX=0.5;entryY=0;entryDx=0;entryDy=0;" edge="1" parent="1" source="G27XcJ3L38covOuvppiz-58" target="G27XcJ3L38covOuvppiz-60">
          <mxGeometry relative="1" as="geometry" />
        </mxCell>
        <mxCell id="G27XcJ3L38covOuvppiz-58" value="Model Training with&lt;div&gt;Stratified K fold and&amp;nbsp;&lt;/div&gt;&lt;div&gt;Simple Imputer and other methods&lt;/div&gt;&lt;div&gt;&lt;br&gt;&lt;/div&gt;" style="text;html=1;align=center;verticalAlign=middle;resizable=0;points=[];autosize=1;strokeColor=none;fillColor=none;" parent="1" vertex="1">
          <mxGeometry y="290" width="210" height="70" as="geometry" />
        </mxCell>
        <mxCell id="G27XcJ3L38covOuvppiz-60" value="Results" style="whiteSpace=wrap;html=1;" parent="1" vertex="1">
          <mxGeometry x="45" y="450" width="120" height="60" as="geometry" />
        </mxCell>
        <mxCell id="NhDxNRqXEH33gflB0Hib-2" value="&lt;b&gt;Start&lt;/b&gt;" style="html=1;shadow=0;dashed=0;align=center;verticalAlign=middle;shape=mxgraph.arrows2.arrow;dy=0.6;dx=40;flipH=1;notch=0;" vertex="1" parent="1">
          <mxGeometry x="710" y="30" width="100" height="70" as="geometry" />
        </mxCell>
      </root>
    </mxGraphModel>
  </diagram>
</mxfile>
